<svg xmlns="http://www.w3.org/2000/svg" viewBox="0 0 1920 1080" width="1920" height="1080" role="img" aria-label="AI">
  <defs>
    <radialGradient id="bg" cx="50%" cy="42%" r="78%">
      <stop offset="0%" stop-color="#40E0D0" stop-opacity="0.20"/>
      <stop offset="46%" stop-color="#0A84FF" stop-opacity="0.07"/>
      <stop offset="100%" stop-color="#050505" stop-opacity="1"/>
    </radialGradient>
    <linearGradient id="bar" x1="0" y1="0" x2="1" y2="0">
      <stop offset="0%" stop-color="#FF3B30"/><stop offset="17%" stop-color="#FF9F0A"/><stop offset="33%" stop-color="#FFD60A"/><stop offset="50%" stop-color="#32D74B"/><stop offset="67%" stop-color="#40E0D0"/><stop offset="83%" stop-color="#0A84FF"/><stop offset="100%" stop-color="#BF5AF2"/>
    </linearGradient>
  </defs>
  <rect width="1920" height="1080" fill="#050505"/>
  <rect width="1920" height="1080" fill="url(#bg)"/>
  <line x1="1047" y1="357" x2="994" y2="211" stroke="#FFFFFF" stroke-width="0.6" opacity="0.07"/><line x1="715" y1="266" x2="924" y2="179" stroke="#FFFFFF" stroke-width="0.6" opacity="0.07"/><line x1="695" y1="52" x2="501" y2="194" stroke="#FFFFFF" stroke-width="0.6" opacity="0.07"/><line x1="918" y1="883" x2="890" y2="993" stroke="#FFFFFF" stroke-width="0.6" opacity="0.07"/><line x1="1055" y1="881" x2="1053" y2="793" stroke="#FFFFFF" stroke-width="0.6" opacity="0.07"/><line x1="965" y1="663" x2="1098" y2="669" stroke="#FFFFFF" stroke-width="0.6" opacity="0.07"/><line x1="146" y1="996" x2="298" y2="1034" stroke="#FFFFFF" stroke-width="0.6" opacity="0.07"/><line x1="1000" y1="916" x2="959" y2="829" stroke="#FFFFFF" stroke-width="0.6" opacity="0.07"/><line x1="127" y1="540" x2="1" y2="682" stroke="#FFFFFF" stroke-width="0.6" opacity="0.07"/><line x1="296" y1="183" x2="321" y2="227" stroke="#FFFFFF" stroke-width="0.6" opacity="0.07"/><line x1="1383" y1="576" x2="1442" y2="571" stroke="#FFFFFF" stroke-width="0.6" opacity="0.07"/><line x1="47" y1="622" x2="127" y2="482" stroke="#FFFFFF" stroke-width="0.6" opacity="0.07"/><line x1="1545" y1="201" x2="1574" y2="148" stroke="#FFFFFF" stroke-width="0.6" opacity="0.07"/><line x1="1480" y1="696" x2="1354" y2="751" stroke="#FFFFFF" stroke-width="0.6" opacity="0.07"/><line x1="1337" y1="465" x2="1497" y2="584" stroke="#FFFFFF" stroke-width="0.6" opacity="0.07"/><line x1="1213" y1="80" x2="1224" y2="62" stroke="#FFFFFF" stroke-width="0.6" opacity="0.07"/>
  <circle cx="1054" cy="613" r="0.98" fill="#0A84FF" opacity="0.60"/><circle cx="1483" cy="671" r="3.30" fill="#0A84FF" opacity="0.16"/><circle cx="782" cy="71" r="3.37" fill="#7EE8DD" opacity="0.41"/><circle cx="230" cy="493" r="2.46" fill="#0A84FF" opacity="0.24"/><circle cx="1772" cy="332" r="3.46" fill="#40E0D0" opacity="0.59"/><circle cx="478" cy="259" r="1.95" fill="#7EE8DD" opacity="0.62"/><circle cx="244" cy="390" r="2.84" fill="#0A84FF" opacity="0.19"/><circle cx="397" cy="779" r="1.78" fill="#7EE8DD" opacity="0.64"/><circle cx="166" cy="977" r="2.87" fill="#0A84FF" opacity="0.19"/><circle cx="853" cy="932" r="3.39" fill="#7EE8DD" opacity="0.47"/><circle cx="1024" cy="971" r="2.64" fill="#40E0D0" opacity="0.45"/><circle cx="1575" cy="299" r="2.56" fill="#7EE8DD" opacity="0.54"/><circle cx="1804" cy="296" r="3.02" fill="#7EE8DD" opacity="0.53"/><circle cx="268" cy="492" r="1.06" fill="#40E0D0" opacity="0.23"/><circle cx="1822" cy="56" r="0.81" fill="#7EE8DD" opacity="0.51"/><circle cx="613" cy="937" r="1.64" fill="#40E0D0" opacity="0.62"/><circle cx="1229" cy="353" r="0.99" fill="#0A84FF" opacity="0.64"/><circle cx="238" cy="711" r="3.12" fill="#0A84FF" opacity="0.54"/><circle cx="1446" cy="523" r="2.05" fill="#0A84FF" opacity="0.47"/><circle cx="1559" cy="328" r="1.19" fill="#7EE8DD" opacity="0.46"/><circle cx="1527" cy="764" r="2.06" fill="#0A84FF" opacity="0.22"/><circle cx="1504" cy="869" r="0.83" fill="#0A84FF" opacity="0.20"/><circle cx="785" cy="570" r="2.31" fill="#7EE8DD" opacity="0.50"/><circle cx="1378" cy="896" r="3.06" fill="#7EE8DD" opacity="0.29"/><circle cx="1216" cy="783" r="1.65" fill="#0A84FF" opacity="0.30"/><circle cx="1159" cy="306" r="1.34" fill="#0A84FF" opacity="0.64"/><circle cx="449" cy="674" r="2.29" fill="#40E0D0" opacity="0.31"/><circle cx="1366" cy="36" r="1.96" fill="#7EE8DD" opacity="0.28"/><circle cx="438" cy="561" r="1.96" fill="#0A84FF" opacity="0.16"/><circle cx="1632" cy="759" r="1.24" fill="#7EE8DD" opacity="0.62"/><circle cx="1156" cy="1038" r="1.51" fill="#0A84FF" opacity="0.36"/><circle cx="869" cy="404" r="2.45" fill="#40E0D0" opacity="0.54"/><circle cx="217" cy="767" r="3.00" fill="#7EE8DD" opacity="0.62"/><circle cx="1792" cy="597" r="2.21" fill="#40E0D0" opacity="0.43"/><circle cx="1044" cy="758" r="1.33" fill="#0A84FF" opacity="0.26"/><circle cx="1397" cy="706" r="1.73" fill="#0A84FF" opacity="0.40"/><circle cx="1629" cy="57" r="0.84" fill="#0A84FF" opacity="0.27"/><circle cx="467" cy="344" r="2.57" fill="#7EE8DD" opacity="0.23"/><circle cx="1798" cy="486" r="1.02" fill="#7EE8DD" opacity="0.18"/><circle cx="1739" cy="20" r="1.45" fill="#0A84FF" opacity="0.57"/><circle cx="744" cy="935" r="1.32" fill="#40E0D0" opacity="0.48"/><circle cx="863" cy="279" r="2.93" fill="#0A84FF" opacity="0.58"/><circle cx="1428" cy="892" r="2.40" fill="#0A84FF" opacity="0.66"/><circle cx="1613" cy="329" r="2.82" fill="#7EE8DD" opacity="0.17"/><circle cx="583" cy="259" r="2.09" fill="#0A84FF" opacity="0.66"/><circle cx="1038" cy="306" r="3.32" fill="#0A84FF" opacity="0.45"/><circle cx="11" cy="345" r="3.13" fill="#40E0D0" opacity="0.66"/><circle cx="1184" cy="888" r="2.08" fill="#7EE8DD" opacity="0.28"/><circle cx="424" cy="334" r="3.25" fill="#7EE8DD" opacity="0.16"/><circle cx="240" cy="711" r="3.28" fill="#7EE8DD" opacity="0.60"/><circle cx="1027" cy="846" r="1.14" fill="#40E0D0" opacity="0.60"/><circle cx="1497" cy="969" r="0.97" fill="#7EE8DD" opacity="0.62"/><circle cx="18" cy="80" r="3.52" fill="#0A84FF" opacity="0.19"/><circle cx="1427" cy="503" r="3.27" fill="#7EE8DD" opacity="0.25"/><circle cx="991" cy="247" r="2.71" fill="#40E0D0" opacity="0.48"/><circle cx="1783" cy="802" r="2.83" fill="#40E0D0" opacity="0.65"/><circle cx="1142" cy="618" r="1.65" fill="#40E0D0" opacity="0.25"/><circle cx="431" cy="40" r="3.55" fill="#40E0D0" opacity="0.34"/><circle cx="906" cy="870" r="2.38" fill="#0A84FF" opacity="0.58"/><circle cx="1598" cy="544" r="2.16" fill="#0A84FF" opacity="0.17"/><circle cx="840" cy="422" r="3.43" fill="#40E0D0" opacity="0.36"/><circle cx="653" cy="878" r="3.12" fill="#7EE8DD" opacity="0.48"/><circle cx="545" cy="107" r="1.18" fill="#0A84FF" opacity="0.56"/><circle cx="847" cy="588" r="1.18" fill="#0A84FF" opacity="0.39"/><circle cx="57" cy="854" r="2.13" fill="#7EE8DD" opacity="0.22"/><circle cx="531" cy="348" r="1.79" fill="#40E0D0" opacity="0.57"/><circle cx="460" cy="166" r="2.02" fill="#40E0D0" opacity="0.22"/><circle cx="860" cy="324" r="1.06" fill="#40E0D0" opacity="0.17"/><circle cx="1866" cy="1044" r="1.36" fill="#40E0D0" opacity="0.38"/><circle cx="1322" cy="268" r="0.93" fill="#40E0D0" opacity="0.51"/><circle cx="559" cy="914" r="2.57" fill="#40E0D0" opacity="0.46"/><circle cx="535" cy="308" r="2.65" fill="#40E0D0" opacity="0.22"/><circle cx="903" cy="216" r="2.10" fill="#0A84FF" opacity="0.31"/><circle cx="684" cy="829" r="1.92" fill="#0A84FF" opacity="0.27"/><circle cx="1902" cy="547" r="1.36" fill="#0A84FF" opacity="0.52"/><circle cx="1274" cy="84" r="2.40" fill="#40E0D0" opacity="0.38"/><circle cx="621" cy="998" r="1.69" fill="#40E0D0" opacity="0.63"/><circle cx="1345" cy="686" r="1.93" fill="#40E0D0" opacity="0.42"/><circle cx="1542" cy="1006" r="2.64" fill="#40E0D0" opacity="0.25"/><circle cx="326" cy="383" r="2.67" fill="#40E0D0" opacity="0.29"/><circle cx="1406" cy="1037" r="0.83" fill="#7EE8DD" opacity="0.25"/><circle cx="1309" cy="753" r="1.52" fill="#0A84FF" opacity="0.61"/><circle cx="1430" cy="182" r="3.30" fill="#40E0D0" opacity="0.64"/><circle cx="657" cy="343" r="1.21" fill="#40E0D0" opacity="0.38"/><circle cx="976" cy="491" r="3.48" fill="#0A84FF" opacity="0.34"/><circle cx="1621" cy="868" r="2.64" fill="#7EE8DD" opacity="0.45"/><circle cx="1063" cy="782" r="2.08" fill="#7EE8DD" opacity="0.40"/><circle cx="656" cy="81" r="2.93" fill="#40E0D0" opacity="0.27"/><circle cx="983" cy="293" r="1.27" fill="#7EE8DD" opacity="0.18"/><circle cx="1000" cy="335" r="1.68" fill="#0A84FF" opacity="0.48"/><circle cx="1635" cy="90" r="1.84" fill="#7EE8DD" opacity="0.19"/><circle cx="422" cy="885" r="3.10" fill="#40E0D0" opacity="0.32"/><circle cx="750" cy="919" r="1.72" fill="#7EE8DD" opacity="0.54"/><circle cx="887" cy="685" r="2.50" fill="#0A84FF" opacity="0.47"/><circle cx="1893" cy="727" r="1.61" fill="#40E0D0" opacity="0.30"/><circle cx="428" cy="938" r="3.48" fill="#40E0D0" opacity="0.60"/><circle cx="1841" cy="888" r="0.84" fill="#0A84FF" opacity="0.39"/><circle cx="792" cy="598" r="2.16" fill="#40E0D0" opacity="0.31"/><circle cx="996" cy="724" r="1.07" fill="#0A84FF" opacity="0.59"/><circle cx="1470" cy="978" r="3.47" fill="#0A84FF" opacity="0.16"/><circle cx="1504" cy="922" r="2.68" fill="#0A84FF" opacity="0.35"/><circle cx="754" cy="232" r="0.91" fill="#0A84FF" opacity="0.26"/><circle cx="1074" cy="316" r="1.51" fill="#7EE8DD" opacity="0.16"/><circle cx="1848" cy="1069" r="1.20" fill="#40E0D0" opacity="0.37"/><circle cx="1558" cy="581" r="1.99" fill="#40E0D0" opacity="0.38"/><circle cx="1347" cy="54" r="1.76" fill="#0A84FF" opacity="0.42"/><circle cx="759" cy="497" r="2.16" fill="#7EE8DD" opacity="0.42"/><circle cx="1651" cy="190" r="1.15" fill="#0A84FF" opacity="0.24"/><circle cx="224" cy="331" r="3.06" fill="#40E0D0" opacity="0.49"/><circle cx="1756" cy="51" r="2.21" fill="#0A84FF" opacity="0.33"/><circle cx="234" cy="1042" r="2.64" fill="#7EE8DD" opacity="0.61"/><circle cx="1459" cy="875" r="3.20" fill="#0A84FF" opacity="0.41"/><circle cx="177" cy="698" r="3.39" fill="#0A84FF" opacity="0.60"/><circle cx="733" cy="101" r="0.87" fill="#7EE8DD" opacity="0.60"/><circle cx="436" cy="599" r="3.14" fill="#0A84FF" opacity="0.38"/><circle cx="529" cy="900" r="1.72" fill="#40E0D0" opacity="0.30"/><circle cx="1277" cy="143" r="2.95" fill="#7EE8DD" opacity="0.60"/><circle cx="1914" cy="352" r="3.28" fill="#0A84FF" opacity="0.44"/><circle cx="647" cy="591" r="3.56" fill="#40E0D0" opacity="0.65"/><circle cx="13" cy="731" r="1.90" fill="#40E0D0" opacity="0.45"/><circle cx="708" cy="54" r="2.40" fill="#40E0D0" opacity="0.58"/><circle cx="491" cy="764" r="3.55" fill="#7EE8DD" opacity="0.36"/><circle cx="1086" cy="964" r="2.99" fill="#40E0D0" opacity="0.63"/><circle cx="1882" cy="612" r="2.13" fill="#0A84FF" opacity="0.38"/><circle cx="651" cy="658" r="2.13" fill="#40E0D0" opacity="0.37"/><circle cx="1655" cy="297" r="3.05" fill="#40E0D0" opacity="0.27"/><circle cx="350" cy="862" r="1.93" fill="#7EE8DD" opacity="0.31"/><circle cx="466" cy="352" r="1.37" fill="#0A84FF" opacity="0.56"/><circle cx="1107" cy="26" r="3.38" fill="#0A84FF" opacity="0.29"/><circle cx="778" cy="823" r="2.26" fill="#0A84FF" opacity="0.26"/>
  <rect x="120" y="906" width="220" height="2" fill="url(#bar)" opacity="0.9"/>
  <text x="120" y="962" font-family="ui-monospace,SFMono-Regular,Menlo,monospace" font-size="26" letter-spacing="9" fill="#67686D">VIDEO_02_AI</text>
  <text x="120" y="1004" font-family="ui-monospace,SFMono-Regular,Menlo,monospace" font-size="19" letter-spacing="5" fill="#3A3B40">PLACEHOLDER POSTER — REPLACE WITH FRAME EXPORT</text>
</svg>
